<svg id="logo" xmlns="http://www.w3.org/2000/svg" width="118.976" height="23.996" viewBox="0 0 118.976 23.996">
  <path id="Path_1" data-name="Path 1" d="M182.053,234.1a1.527,1.527,0,0,0-1.042.409,1.374,1.374,0,0,0-.409,1v7.292a6.2,6.2,0,0,0-.856-.856,6.674,6.674,0,0,0-1.637-1,10.258,10.258,0,0,0-1.9-.6,8.731,8.731,0,0,0-1.935-.186,9.941,9.941,0,0,0-3.534.632,8.272,8.272,0,0,0-2.9,1.786,8.174,8.174,0,0,0-1.935,2.79,8.857,8.857,0,0,0-.707,3.646,9.036,9.036,0,0,0,.707,3.683,8.42,8.42,0,0,0,4.836,4.651,10.093,10.093,0,0,0,3.534.632,8.577,8.577,0,0,0,1.935-.223,10.323,10.323,0,0,0,1.9-.632,6.8,6.8,0,0,0,1.637-1.042,9.292,9.292,0,0,0,.856-.856v1.153a1.506,1.506,0,0,0,.409,1,1.321,1.321,0,0,0,1.042.409,1.527,1.527,0,0,0,1.042-.409,1.374,1.374,0,0,0,.409-1V235.551a1.507,1.507,0,0,0-.409-1,1.351,1.351,0,0,0-1.042-.446m-1.414,14.919a6.559,6.559,0,0,1-.521,2.642,5.24,5.24,0,0,1-1.377,1.935,5.369,5.369,0,0,1-2.009,1.153,7.724,7.724,0,0,1-2.455.409,6.5,6.5,0,0,1-2.418-.446,5.769,5.769,0,0,1-3.274-3.2,6.564,6.564,0,0,1-.484-2.456,5.963,5.963,0,0,1,.484-2.493,5.239,5.239,0,0,1,1.3-1.9,5.6,5.6,0,0,1,1.972-1.191,6.5,6.5,0,0,1,2.418-.447,6.692,6.692,0,0,1,2.232.372,6.188,6.188,0,0,1,2.046,1.153,5.729,5.729,0,0,1,1.451,1.9,4.7,4.7,0,0,1,.632,2.567" transform="translate(-160.698 -234.026)" fill="#a2d45e"/>
  <path id="Path_2" data-name="Path 2" d="M233.716,252.818a7.994,7.994,0,0,0-2.753-1.786,9.736,9.736,0,0,0-3.5-.632,9.941,9.941,0,0,0-3.534.632,8.461,8.461,0,0,0-2.865,1.786,8.079,8.079,0,0,0-1.9,2.79,9.5,9.5,0,0,0-.67,3.646,9.7,9.7,0,0,0,.67,3.683,8.229,8.229,0,0,0,1.9,2.828,9.179,9.179,0,0,0,2.865,1.823,9.94,9.94,0,0,0,3.534.632,9.137,9.137,0,0,0,4.167-.93,8.17,8.17,0,0,0,3.125-2.6,1.322,1.322,0,0,0,.223-1.042,1.239,1.239,0,0,0-.632-.856,1.334,1.334,0,0,0-1.116-.149,2.356,2.356,0,0,0-.893.6,6.812,6.812,0,0,1-2.009,1.6,5.851,5.851,0,0,1-2.865.6,6.048,6.048,0,0,1-2.195-.372,5.662,5.662,0,0,1-3.162-2.6,5.2,5.2,0,0,1-.632-1.9h13.319a1.292,1.292,0,0,0,.93-.372,1.169,1.169,0,0,0,.409-.967,10.415,10.415,0,0,0-.632-3.646,7.994,7.994,0,0,0-1.786-2.753m-12.24,5.134a5.621,5.621,0,0,1,1.972-3.423,6.161,6.161,0,0,1,4.018-1.339,5.693,5.693,0,0,1,3.869,1.339,5.861,5.861,0,0,1,1.86,3.423Z" transform="translate(-194.169 -244.261)" fill="#a2d45e"/>
  <path id="Path_3" data-name="Path 3" d="M288.095,251.1h0a1.321,1.321,0,0,0-1.042-.409,1.527,1.527,0,0,0-1.042.409,1.374,1.374,0,0,0-.409,1v1.042a6.2,6.2,0,0,0-.856-.856,6.673,6.673,0,0,0-1.637-1,10.259,10.259,0,0,0-1.9-.6,8.733,8.733,0,0,0-1.935-.186,9.941,9.941,0,0,0-3.534.632,8.272,8.272,0,0,0-2.9,1.786,8.173,8.173,0,0,0-1.935,2.79,8.858,8.858,0,0,0-.707,3.646,9.037,9.037,0,0,0,.707,3.683,8.419,8.419,0,0,0,4.836,4.651,10.249,10.249,0,0,0,3.534.632,8.575,8.575,0,0,0,1.935-.223,10.319,10.319,0,0,0,1.9-.632,6.8,6.8,0,0,0,1.637-1.042,9.288,9.288,0,0,0,.856-.856v1.153a1.506,1.506,0,0,0,.409,1,1.322,1.322,0,0,0,1.042.409,1.527,1.527,0,0,0,1.042-.409,1.374,1.374,0,0,0,.409-1V252.137a1.273,1.273,0,0,0-.409-1.042m-2.455,8.222a6.559,6.559,0,0,1-.521,2.642,5.621,5.621,0,0,1-1.339,1.935,5.368,5.368,0,0,1-2.009,1.153,7.724,7.724,0,0,1-2.455.409,6.5,6.5,0,0,1-2.418-.446,5.769,5.769,0,0,1-3.274-3.2,6.564,6.564,0,0,1-.484-2.456,5.963,5.963,0,0,1,.484-2.493,5.239,5.239,0,0,1,1.3-1.9,5.6,5.6,0,0,1,1.972-1.191,6.5,6.5,0,0,1,2.418-.446,6.692,6.692,0,0,1,2.232.372,6.187,6.187,0,0,1,2.046,1.153,5.277,5.277,0,0,1,1.451,1.9,5.136,5.136,0,0,1,.6,2.567" transform="translate(-226.635 -244.324)" fill="#a2d45e"/>
  <path id="Path_4" data-name="Path 4" d="M154.551,251a1.527,1.527,0,0,0-1.042.409,1.374,1.374,0,0,0-.409,1V267a1.507,1.507,0,0,0,.409,1,1.322,1.322,0,0,0,1.042.409,1.527,1.527,0,0,0,1.042-.409,1.374,1.374,0,0,0,.409-1V252.414a1.507,1.507,0,0,0-.409-1,1.321,1.321,0,0,0-1.042-.409" transform="translate(-153.1 -244.638)" fill="#a2d45e"/>
  <path id="Path_5" data-name="Path 5" d="M154.614,238.1a1.406,1.406,0,0,0,1.414-1.377v-1.451a1.414,1.414,0,0,0-2.827,0v1.451a1.406,1.406,0,0,0,1.414,1.377" transform="translate(-153.163 -233.9)" fill="#a2d45e"/>
  <path id="Path_6" data-name="Path 6" d="M333.093,258.064l-2.381-.521a5.344,5.344,0,0,1-.93-.3,3.111,3.111,0,0,1-.856-.447,2.3,2.3,0,0,1-.558-.744,2.011,2.011,0,0,1-.074-1.079,1.844,1.844,0,0,1,.967-1.3,3.647,3.647,0,0,1,2.046-.521,4.022,4.022,0,0,1,1.637.3,2.575,2.575,0,0,1,.967.93,3.074,3.074,0,0,0,.6.744,1.108,1.108,0,0,0,1.153.149,1.386,1.386,0,0,0,.893-.67,1.221,1.221,0,0,0,.074-1.079,4.336,4.336,0,0,0-2.158-2.418,7.032,7.032,0,0,0-3.162-.707,7.414,7.414,0,0,0-2.083.3,6.856,6.856,0,0,0-1.749.819,4.817,4.817,0,0,0-1.3,1.3,4.029,4.029,0,0,0-.67,1.711,5.454,5.454,0,0,0,.186,2.53,4.339,4.339,0,0,0,1.079,1.637,5.231,5.231,0,0,0,1.563.967,14.43,14.43,0,0,0,1.674.521l2.418.521a3.158,3.158,0,0,1,1.823.967,2.289,2.289,0,0,1,.521,1.414,2.047,2.047,0,0,1-.93,1.749,4.33,4.33,0,0,1-2.53.67,4.384,4.384,0,0,1-2.493-.6,3.454,3.454,0,0,1-1.116-1.377,1.952,1.952,0,0,0-.6-.819,1.133,1.133,0,0,0-1.042-.186,1.305,1.305,0,0,0-.856.6,1.26,1.26,0,0,0-.112,1.042,5.435,5.435,0,0,0,.93,1.711,7.642,7.642,0,0,0,1.414,1.265,6.775,6.775,0,0,0,3.683,1.042,8.24,8.24,0,0,0,2.567-.372,7.286,7.286,0,0,0,2.083-1.042,4.759,4.759,0,0,0,1.9-3.721,5.065,5.065,0,0,0-1-3.125,6.482,6.482,0,0,0-3.572-1.86" transform="translate(-261.068 -244.261)" fill="#0075c9"/>
  <path id="Path_7" data-name="Path 7" d="M378.974,252.818a9.027,9.027,0,0,0-2.939-1.786,10.459,10.459,0,0,0-3.572-.632,10.3,10.3,0,0,0-3.571.632,8.431,8.431,0,0,0-2.939,1.786,9.561,9.561,0,0,0-2.009,2.79,8.865,8.865,0,0,0-.744,3.646,9.044,9.044,0,0,0,.744,3.683,8.519,8.519,0,0,0,2.009,2.828,9.112,9.112,0,0,0,2.939,1.823,10.458,10.458,0,0,0,3.571.632,10.3,10.3,0,0,0,3.572-.632,8.517,8.517,0,0,0,2.939-1.823,9.264,9.264,0,0,0,2.009-2.828,9.045,9.045,0,0,0,.744-3.683,8.866,8.866,0,0,0-.744-3.646,9.562,9.562,0,0,0-2.009-2.79m-.149,6.436a6.458,6.458,0,0,1-.521,2.567,5.566,5.566,0,0,1-1.377,1.935,6.664,6.664,0,0,1-2.046,1.228,6.975,6.975,0,0,1-4.911,0,6.664,6.664,0,0,1-2.046-1.228,5.241,5.241,0,0,1-1.377-1.935,6.2,6.2,0,0,1-.521-2.567,6.276,6.276,0,0,1,.521-2.53,5.421,5.421,0,0,1,1.377-1.9,5.922,5.922,0,0,1,2.046-1.191,6.976,6.976,0,0,1,4.911,0,7.39,7.39,0,0,1,2.046,1.191,5.422,5.422,0,0,1,1.377,1.9,6.277,6.277,0,0,1,.521,2.53" transform="translate(-285.036 -244.261)" fill="#0075c9"/>
  <path id="Path_8" data-name="Path 8" d="M455.41,241.271h0a1.488,1.488,0,0,0-.967-.372H451.95v-4.985a1.506,1.506,0,0,0-.409-1,1.321,1.321,0,0,0-1.042-.409,1.527,1.527,0,0,0-1.042.409,1.374,1.374,0,0,0-.409,1V240.9h-1.972a1.318,1.318,0,0,0-.967.372,1.262,1.262,0,0,0,0,1.86,1.488,1.488,0,0,0,.967.372h1.972v13.245a1.506,1.506,0,0,0,.409,1,1.322,1.322,0,0,0,1.042.409,1.527,1.527,0,0,0,1.042-.409,1.374,1.374,0,0,0,.409-1V243.5h2.493a1.318,1.318,0,0,0,.967-.372,1.209,1.209,0,0,0,.409-.93,1.1,1.1,0,0,0-.409-.93" transform="translate(-336.844 -234.277)" fill="#0075c9"/>
  <path id="Path_9" data-name="Path 9" d="M440.484,256.6a.448.448,0,0,1-.186.186.81.81,0,0,1-.3.186,1.3,1.3,0,0,0,.3-.186c.074-.037.112-.112.186-.186" transform="translate(-333.264 -248.154)" fill="#0075c9"/>
  <path id="Path_10" data-name="Path 10" d="M420.7,238.581a2.575,2.575,0,0,1,.93-.967,3.16,3.16,0,0,1,1.711-.372h.818a1.347,1.347,0,0,0,1-.372,1.209,1.209,0,0,0,.409-.93,1.337,1.337,0,0,0-1.414-1.339h-.818a6.493,6.493,0,0,0-2.827.558,5.235,5.235,0,0,0-1.86,1.488,6.814,6.814,0,0,0-1,2.232,9.8,9.8,0,0,0-.26,2.158H415.3a1.36,1.36,0,0,0-.93.335,1.349,1.349,0,0,0,0,1.86,1.36,1.36,0,0,0,.93.335h2.083v13.282a1.351,1.351,0,0,0,.409.967,1.437,1.437,0,0,0,2.009,0,1.351,1.351,0,0,0,.409-.967V243.566h2.9a1.36,1.36,0,0,0,.93-.335,1.131,1.131,0,0,0,.372-.93,1.181,1.181,0,0,0-.372-.93,1.36,1.36,0,0,0-.93-.335H420.25c0-.335.037-.67.074-1.042a2.85,2.85,0,0,1,.372-1.414" transform="translate(-316.937 -234.34)" fill="#0075c9"/>
</svg>
